<svg version="1.1" id="Layer_1" xmlns="http://www.w3.org/2000/svg" xmlns:xlink="http://www.w3.org/1999/xlink" x="0px" y="0px"
	 width="100%" viewBox="0 0 512 512" enable-background="new 0 0 512 512" xml:space="preserve">
<path fill="#F25A3C" opacity="1.000000" stroke="none" 
	d="
M257.000000,513.000000 
	C201.645767,513.000000 146.291550,513.000000 90.805862,512.701904 
	C90.189537,511.970276 89.761414,511.254547 89.211555,511.143890 
	C70.330597,507.344757 56.088062,496.402008 45.036434,481.314301 
	C37.547592,471.090485 32.198227,459.295959 32.158123,446.505737 
	C31.865007,353.023926 32.007072,259.540741 31.978693,166.057999 
	C31.977335,161.591248 33.738007,158.028046 37.534241,155.980148 
	C40.272133,154.503204 43.508751,153.141846 46.531273,153.123749 
	C86.685890,152.883301 126.841972,152.889679 167.462051,152.893890 
	C177.953094,152.913483 187.979782,152.873718 198.471619,152.903549 
	C218.286713,153.037445 237.636642,153.101730 256.989258,153.624268 
	C256.992828,181.044266 256.993652,208.005997 256.978455,235.158508 
	C256.962433,235.349258 256.953949,235.732010 256.489075,235.708832 
	C233.693268,235.686401 211.360855,235.526733 189.031723,235.729172 
	C162.138611,235.972961 140.620102,253.906769 135.949478,280.339172 
	C130.357178,311.987579 125.220963,343.717377 120.029999,375.435303 
	C118.850929,382.639709 117.127899,390.018494 117.623703,397.180725 
	C118.777908,413.854095 131.066498,427.004028 146.606567,429.823669 
	C163.595673,432.906250 178.096970,425.523956 186.158096,409.600891 
	C192.704910,396.669037 199.327866,383.771332 205.581131,370.697815 
	C207.455780,366.778595 209.825104,365.529633 214.047119,365.581299 
	C228.373093,365.756622 242.703934,365.532501 257.020477,365.614990 
	C257.008026,365.769012 256.985229,366.077301 256.988190,366.541138 
	C256.994110,415.669952 256.997040,464.334991 257.000000,513.000000 
z"/>
<path fill="#E63A3A" opacity="1.000000" stroke="none" 
	d="
M256.994476,234.967743 
	C256.993652,208.005997 256.992828,181.044266 257.454346,153.556366 
	C277.608643,152.965652 297.300537,152.901093 317.458344,152.895020 
	C327.618347,152.914337 337.312469,152.875153 347.470551,152.903137 
	C387.765228,152.980042 427.595917,152.991470 467.426605,152.998322 
	C476.778046,152.999924 482.001038,158.206818 482.001007,167.538757 
	C482.000610,259.199493 482.010254,350.860260 481.961853,442.520966 
	C481.960297,445.448242 481.579376,448.416992 481.015259,451.295868 
	C474.877991,482.616913 456.191925,502.337036 425.635498,511.081573 
	C424.962463,511.274170 424.539581,512.341003 424.000000,513.000000 
	C368.645782,513.000000 313.291534,513.000000 257.468658,513.000000 
	C256.997040,464.334991 256.994110,415.669952 257.455566,366.489380 
	C272.072876,365.954803 286.228699,366.091431 300.376709,365.819611 
	C304.489746,365.740601 306.563293,367.153564 308.327179,370.811737 
	C314.975067,384.598877 321.705475,398.360168 328.913177,411.859772 
	C337.405609,427.765656 356.074219,434.575653 372.992462,428.494293 
	C389.363556,422.609589 399.204956,405.553589 396.345123,388.371582 
	C391.136658,357.079315 386.185059,325.743561 380.812012,294.479950 
	C379.243958,285.356079 377.925385,275.828003 374.208252,267.505402 
	C364.673798,246.157959 347.091278,235.686966 323.922913,235.213257 
	C301.621094,234.757263 279.304535,235.020523 256.994476,234.967743 
z"/>
<path fill="#000000" opacity="1.000000" stroke="none" 
	d="
M166.997696,152.834503 
	C126.841972,152.889679 86.685890,152.883301 46.531273,153.123749 
	C43.508751,153.141846 40.272133,154.503204 37.534241,155.980148 
	C33.738007,158.028046 31.977335,161.591248 31.978693,166.057999 
	C32.007072,259.540741 31.865007,353.023926 32.158123,446.505737 
	C32.198227,459.295959 37.547592,471.090485 45.036434,481.314301 
	C56.088062,496.402008 70.330597,507.344757 89.211555,511.143890 
	C89.761414,511.254547 90.189537,511.970276 90.337204,512.701904 
	C60.348827,513.000000 30.697655,513.000000 1.023240,513.000000 
	C1.023240,342.437958 1.023240,171.875916 1.023240,1.000000 
	C79.687286,1.000000 158.374985,1.000000 237.589661,1.388679 
	C237.777939,2.117701 237.487198,2.681996 237.093704,2.766245 
	C217.958252,6.863187 202.192871,16.647947 189.319580,31.207899 
	C175.520203,46.815300 167.393982,64.898453 167.076324,85.894997 
	C166.738800,108.203461 166.998688,130.520966 166.997696,152.834503 
z"/>
<path fill="#000000" opacity="1.000000" stroke="none" 
	d="
M424.468658,513.000000 
	C424.539581,512.341003 424.962463,511.274170 425.635498,511.081573 
	C456.191925,502.337036 474.877991,482.616913 481.015259,451.295868 
	C481.579376,448.416992 481.960297,445.448242 481.961853,442.520966 
	C482.010254,350.860260 482.000610,259.199493 482.001007,167.538757 
	C482.001038,158.206818 476.778046,152.999924 467.426605,152.998322 
	C427.595917,152.991470 387.765228,152.980042 347.468994,152.445557 
	C347.004486,129.776749 347.051392,107.632515 346.962128,85.488823 
	C346.946899,81.713783 346.698883,77.871193 345.962311,74.178726 
	C341.391144,51.263062 330.111664,32.532822 311.227631,18.432314 
	C301.535339,11.195141 290.862701,6.290627 279.287689,3.086717 
	C278.090942,2.755467 277.091156,1.712646 276.000000,0.999998 
	C354.958771,1.000000 433.917511,1.000000 512.938110,1.000000 
	C512.938110,171.666656 512.938110,342.333344 512.938110,513.000000 
	C483.573303,513.000000 454.255310,513.000000 424.468658,513.000000 
z"/>
<path fill="#544473" opacity="1.000000" stroke="none" 
	d="
M167.462051,152.893890 
	C166.998688,130.520966 166.738800,108.203461 167.076324,85.894997 
	C167.393982,64.898453 175.520203,46.815300 189.319580,31.207899 
	C202.192871,16.647947 217.958252,6.863187 237.093704,2.766245 
	C237.487198,2.681996 237.777939,2.117701 238.058319,1.388679 
	C244.021149,1.000000 250.042297,1.000000 256.531433,1.468657 
	C256.986908,11.571114 256.974396,21.204914 256.601440,31.048527 
	C253.141922,31.551975 249.988220,31.573006 246.952347,32.181709 
	C218.709183,37.844578 197.165482,62.565559 197.904861,91.924400 
	C198.415878,112.215561 198.005249,132.529938 198.006470,152.833939 
	C187.979782,152.873718 177.953094,152.913483 167.462051,152.893890 
z"/>
<path fill="#413559" opacity="1.000000" stroke="none" 
	d="
M256.961853,30.838713 
	C256.974396,21.204914 256.986908,11.571114 256.999725,1.468657 
	C263.021149,1.000000 269.042297,1.000000 275.531738,0.999998 
	C277.091156,1.712646 278.090942,2.755467 279.287689,3.086717 
	C290.862701,6.290627 301.535339,11.195141 311.227631,18.432314 
	C330.111664,32.532822 341.391144,51.263062 345.962311,74.178726 
	C346.698883,77.871193 346.946899,81.713783 346.962128,85.488823 
	C347.051392,107.632515 347.004486,129.776749 347.005005,152.378387 
	C337.312469,152.875153 327.618347,152.914337 317.460205,152.437439 
	C316.649384,130.521027 316.229889,109.121529 315.988495,87.720032 
	C315.879120,78.021790 313.010895,69.302895 307.946136,61.106724 
	C297.146332,43.629726 281.979370,33.343456 261.166931,32.000851 
	C259.746185,31.909197 258.362671,31.239552 256.961853,30.838713 
z"/>
<path fill="#FFBD40" opacity="1.000000" stroke="none" 
	d="
M256.978455,235.158508 
	C279.304535,235.020523 301.621094,234.757263 323.922913,235.213257 
	C347.091278,235.686966 364.673798,246.157959 374.208252,267.505402 
	C377.925385,275.828003 379.243958,285.356079 380.812012,294.479950 
	C386.185059,325.743561 391.136658,357.079315 396.345123,388.371582 
	C399.204956,405.553589 389.363556,422.609589 372.992462,428.494293 
	C356.074219,434.575653 337.405609,427.765656 328.913177,411.859772 
	C321.705475,398.360168 314.975067,384.598877 308.327179,370.811737 
	C306.563293,367.153564 304.489746,365.740601 300.376709,365.819611 
	C286.228699,366.091431 272.072876,365.954803 257.452637,366.025574 
	C256.985229,366.077301 257.008026,365.769012 257.008118,365.186279 
	C256.990143,321.646362 256.972046,278.689178 256.953949,235.732010 
	C256.953949,235.732010 256.962433,235.349258 256.978455,235.158508 
M308.576538,316.346680 
	C316.237061,311.565247 318.880920,304.195343 315.568604,296.856049 
	C312.491669,290.038300 304.778412,286.507721 297.749207,288.699554 
	C289.663422,291.220856 285.201660,299.323975 287.604187,307.124176 
	C290.313477,315.920441 298.302979,319.704895 308.576538,316.346680 
z"/>
<path fill="#FFDF40" opacity="1.000000" stroke="none" 
	d="
M256.489075,235.708832 
	C256.972046,278.689178 256.990143,321.646362 257.020569,365.032227 
	C242.703934,365.532501 228.373093,365.756622 214.047119,365.581299 
	C209.825104,365.529633 207.455780,366.778595 205.581131,370.697815 
	C199.327866,383.771332 192.704910,396.669037 186.158096,409.600891 
	C178.096970,425.523956 163.595673,432.906250 146.606567,429.823669 
	C131.066498,427.004028 118.777908,413.854095 117.623703,397.180725 
	C117.127899,390.018494 118.850929,382.639709 120.029999,375.435303 
	C125.220963,343.717377 130.357178,311.987579 135.949478,280.339172 
	C140.620102,253.906769 162.138611,235.972961 189.031723,235.729172 
	C211.360855,235.526733 233.693268,235.686401 256.489075,235.708832 
M197.064362,305.079742 
	C197.512207,306.500427 197.787674,308.005951 198.438080,309.326904 
	C201.084442,314.701538 205.499832,317.745453 211.452438,317.926483 
	C217.616348,318.113922 222.331116,315.269958 225.210159,309.748993 
	C228.012924,304.374268 227.447372,299.138123 224.006805,294.247192 
	C220.305405,288.985443 213.733353,286.818573 207.705597,288.713013 
	C200.747635,290.899750 197.168015,296.094208 197.064362,305.079742 
z"/>
<path fill="#000000" opacity="1.000000" stroke="none" 
	d="
M256.601410,31.048527 
	C258.362671,31.239552 259.746185,31.909197 261.166931,32.000851 
	C281.979370,33.343456 297.146332,43.629726 307.946136,61.106724 
	C313.010895,69.302895 315.879120,78.021790 315.988495,87.720032 
	C316.229889,109.121529 316.649384,130.521027 316.994324,152.378937 
	C297.300537,152.901093 277.608643,152.965652 257.451660,153.098114 
	C237.636642,153.101730 218.286713,153.037445 198.471619,152.903549 
	C198.005249,132.529938 198.415878,112.215561 197.904861,91.924400 
	C197.165482,62.565559 218.709183,37.844578 246.952347,32.181709 
	C249.988220,31.573006 253.141922,31.551975 256.601410,31.048527 
z"/>
<path fill="#443759" opacity="1.000000" stroke="none" 
	d="
M308.236725,316.541565 
	C298.302979,319.704895 290.313477,315.920441 287.604187,307.124176 
	C285.201660,299.323975 289.663422,291.220856 297.749207,288.699554 
	C304.778412,286.507721 312.491669,290.038300 315.568604,296.856049 
	C318.880920,304.195343 316.237061,311.565247 308.236725,316.541565 
z"/>
<path fill="#574772" opacity="1.000000" stroke="none" 
	d="
M197.033371,304.662140 
	C197.168015,296.094208 200.747635,290.899750 207.705597,288.713013 
	C213.733353,286.818573 220.305405,288.985443 224.006805,294.247192 
	C227.447372,299.138123 228.012924,304.374268 225.210159,309.748993 
	C222.331116,315.269958 217.616348,318.113922 211.452438,317.926483 
	C205.499832,317.745453 201.084442,314.701538 198.438080,309.326904 
	C197.787674,308.005951 197.512207,306.500427 197.033371,304.662140 
z"/>
</svg>